<svg width="24" height="24" viewBox="0 0 24 24" fill="none" xmlns="http://www.w3.org/2000/svg">
<g id="instagram">
<path id="Icon color" fill-rule="evenodd" clip-rule="evenodd" d="M16 3H8C5.23858 3 3 5.23858 3 8V16C3 18.7614 5.23858 21 8 21H16C18.7614 21 21 18.7614 21 16V8C21 5.23858 18.7614 3 16 3ZM19.2497 16.0001C19.2442 17.7928 17.7924 19.2446 15.9997 19.2501H7.99974C6.20709 19.2446 4.75523 17.7928 4.74974 16.0001V8.00013C4.75523 6.20748 6.20709 4.75562 7.99974 4.75013H15.9997C17.7924 4.75562 19.2442 6.20748 19.2497 8.00013V16.0001ZM16.75 8.25013C17.3023 8.25013 17.75 7.80242 17.75 7.25013C17.75 6.69785 17.3023 6.25013 16.75 6.25013C16.1977 6.25013 15.75 6.69785 15.75 7.25013C15.75 7.80242 16.1977 8.25013 16.75 8.25013ZM12 7.5C9.51472 7.5 7.5 9.51472 7.5 12C7.5 14.4853 9.51472 16.5 12 16.5C14.4853 16.5 16.5 14.4853 16.5 12C16.5027 10.8057 16.0294 9.65957 15.1849 8.81508C14.3404 7.97059 13.1943 7.49734 12 7.5ZM9.24974 12.0001C9.24974 13.5189 10.481 14.7501 11.9997 14.7501C13.5185 14.7501 14.7497 13.5189 14.7497 12.0001C14.7497 10.4813 13.5185 9.25013 11.9997 9.25013C10.481 9.25013 9.24974 10.4813 9.24974 12.0001Z" fill="white"/>
</g>
</svg>
