<svg width="24" height="25" viewBox="0 0 24 25" fill="none" xmlns="http://www.w3.org/2000/svg">
<path d="M16 16.5V15V13.5M16 16.5H7.73244M16 16.5H16.2676M16 9.50001V5.50001L3.00006 5.5C2.44778 5.5 2.00006 5.94771 2.00006 6.49999L2 16.5H4.26756M16 9.50001H19.5L22 12.5V13.5M16 9.50001V13.5M22 13.5H16M22 13.5V16.5H19.7324M7.73244 16.5C7.38663 15.9022 6.74028 15.5 6 15.5C5.25972 15.5 4.61337 15.9022 4.26756 16.5M7.73244 16.5C7.90261 16.7942 8 17.1357 8 17.5C8 18.6046 7.10457 19.5 6 19.5C4.89543 19.5 4 18.6046 4 17.5C4 17.1357 4.09739 16.7942 4.26756 16.5M16.2676 16.5C16.0974 16.7942 16 17.1357 16 17.5C16 18.6046 16.8954 19.5 18 19.5C19.1046 19.5 20 18.6046 20 17.5C20 17.1357 19.9026 16.7942 19.7324 16.5M16.2676 16.5C16.6134 15.9022 17.2597 15.5 18 15.5C18.7403 15.5 19.3866 15.9022 19.7324 16.5" stroke="#262D33" stroke-width="1.2"/>
</svg>
