<svg width="24" height="24" viewBox="0 0 24 24" fill="none" xmlns="http://www.w3.org/2000/svg">
<path fill-rule="evenodd" clip-rule="evenodd" d="M18.5401 4.33748L20.0001 4.48748C21.7286 4.68285 23.0266 6.1582 23.0001 7.89748V16.0975C23.0266 17.8368 21.7286 19.3121 20.0001 19.5075L18.6001 19.6575C14.2317 20.1075 9.82857 20.1075 5.46012 19.6575L4.00012 19.5075C2.27164 19.3121 0.973678 17.8368 1.00012 16.0975V7.89748C0.973678 6.1582 2.27164 4.68285 4.00012 4.48748L5.40012 4.33748C9.76857 3.88751 14.1717 3.88751 18.5401 4.33748ZM11.1101 15.2177L15.0001 12.6177H15.0601C15.2697 12.4811 15.3961 12.2478 15.3961 11.9977C15.3961 11.7475 15.2697 11.5142 15.0601 11.3777L11.1701 8.77766C10.9405 8.62242 10.6439 8.60653 10.3989 8.73633C10.154 8.86613 10.0006 9.12045 10.0001 9.39766V14.5977C10.013 14.8557 10.1579 15.089 10.3835 15.215C10.609 15.341 10.8836 15.342 11.1101 15.2177Z" fill="white"/>
</svg>
